<svg width="1295" height="580" viewBox="0 0 1295 580" fill="none" xmlns="http://www.w3.org/2000/svg">
<path d="M118.876 210C162.918 210.282 187.635 242.628 187.748 277.106V312.426L187.748 356.575V384.565C187.684 396.602 189.701 401.909 199.227 401.606C206.305 401.004 208.97 398.814 211.588 391.894L260.042 210.883H319.202L272.514 391.894C270.617 398.365 268.733 404.234 266.859 409.553C254.527 448.596 232.282 459.046 200.993 459C156.95 458.718 132.233 426.372 132.12 391.894V356.575V312.426V284.436C132.184 272.399 130.167 267.091 120.642 267.394C113.563 267.996 110.898 270.186 108.28 277.106L60.2991 456.351H1.13953L47.3544 277.106C49.2515 270.635 51.135 264.767 53.0095 259.447C65.3415 220.404 87.5865 209.954 118.876 210Z" fill="#604AFF" stroke="#604AFF" stroke-width="1.76596"/>
<mask id="path-2-outside-1_1_14" maskUnits="userSpaceOnUse" x="317.14" y="119" width="973" height="433" fill="black">
<rect fill="white" x="317.14" y="119" width="973" height="433"/>
<path d="M396.053 465.762C372.869 465.762 354.032 459.322 339.542 446.442C325.374 433.562 318.29 415.53 318.29 392.346C318.29 372.06 324.247 355.96 336.161 344.046C348.075 331.81 366.429 322.311 391.223 315.549L462.707 296.712V288.018C462.707 280.29 459.648 274.172 453.53 269.664C447.412 264.834 439.04 262.419 428.414 262.419C405.23 262.419 391.223 272.401 386.393 292.365H320.705C324.891 264.673 336.644 243.26 355.964 228.126C375.284 212.992 399.434 205.425 428.414 205.425C458.038 205.425 481.222 212.992 497.966 228.126C515.032 242.938 523.565 262.902 523.565 288.018V459H462.707V436.782C447.251 456.102 425.033 465.762 396.053 465.762ZM410.06 414.081C424.55 414.081 436.947 409.895 447.251 401.523C457.555 392.829 462.707 381.881 462.707 368.679V345.978L403.781 361.434C387.359 366.264 379.148 374.958 379.148 387.516C379.148 396.21 381.885 402.811 387.359 407.319C393.155 411.827 400.722 414.081 410.06 414.081ZM615.648 459L524.361 212.187H588.117L650.907 388.965L713.697 212.187H776.487L684.717 459H615.648ZM934.862 465.762C899.442 465.762 872.072 453.687 852.752 429.537V459H791.894V120.9H852.752V242.133C871.75 217.661 899.12 205.425 934.862 205.425C966.74 205.425 994.11 217.017 1016.97 240.201C1039.83 263.385 1051.26 295.263 1051.26 335.835C1051.26 376.407 1039.83 408.285 1016.97 431.469C994.11 454.331 966.74 465.762 934.862 465.762ZM871.106 389.448C883.664 402.328 900.086 408.768 920.372 408.768C940.658 408.768 956.919 402.328 969.155 389.448C981.713 376.568 987.992 358.697 987.992 335.835C987.992 312.973 981.713 295.102 969.155 282.222C956.919 269.02 940.658 262.419 920.372 262.419C900.086 262.419 883.664 269.02 871.106 282.222C858.87 295.102 852.752 312.973 852.752 335.835C852.752 358.697 858.87 376.568 871.106 389.448ZM1086.66 550.77L1133.03 436.299L1035.94 212.187H1102.6L1165.39 360.951L1224.8 212.187H1288.07L1149.93 550.77H1086.66Z"/>
</mask>
<path d="M396.053 465.762C372.869 465.762 354.032 459.322 339.542 446.442C325.374 433.562 318.29 415.53 318.29 392.346C318.29 372.06 324.247 355.96 336.161 344.046C348.075 331.81 366.429 322.311 391.223 315.549L462.707 296.712V288.018C462.707 280.29 459.648 274.172 453.53 269.664C447.412 264.834 439.04 262.419 428.414 262.419C405.23 262.419 391.223 272.401 386.393 292.365H320.705C324.891 264.673 336.644 243.26 355.964 228.126C375.284 212.992 399.434 205.425 428.414 205.425C458.038 205.425 481.222 212.992 497.966 228.126C515.032 242.938 523.565 262.902 523.565 288.018V459H462.707V436.782C447.251 456.102 425.033 465.762 396.053 465.762ZM410.06 414.081C424.55 414.081 436.947 409.895 447.251 401.523C457.555 392.829 462.707 381.881 462.707 368.679V345.978L403.781 361.434C387.359 366.264 379.148 374.958 379.148 387.516C379.148 396.21 381.885 402.811 387.359 407.319C393.155 411.827 400.722 414.081 410.06 414.081ZM615.648 459L524.361 212.187H588.117L650.907 388.965L713.697 212.187H776.487L684.717 459H615.648ZM934.862 465.762C899.442 465.762 872.072 453.687 852.752 429.537V459H791.894V120.9H852.752V242.133C871.75 217.661 899.12 205.425 934.862 205.425C966.74 205.425 994.11 217.017 1016.97 240.201C1039.83 263.385 1051.26 295.263 1051.26 335.835C1051.26 376.407 1039.83 408.285 1016.97 431.469C994.11 454.331 966.74 465.762 934.862 465.762ZM871.106 389.448C883.664 402.328 900.086 408.768 920.372 408.768C940.658 408.768 956.919 402.328 969.155 389.448C981.713 376.568 987.992 358.697 987.992 335.835C987.992 312.973 981.713 295.102 969.155 282.222C956.919 269.02 940.658 262.419 920.372 262.419C900.086 262.419 883.664 269.02 871.106 282.222C858.87 295.102 852.752 312.973 852.752 335.835C852.752 358.697 858.87 376.568 871.106 389.448ZM1086.66 550.77L1133.03 436.299L1035.94 212.187H1102.6L1165.39 360.951L1224.8 212.187H1288.07L1149.93 550.77H1086.66Z" fill="#604AFF"/>
<path d="M339.542 446.442L338.869 447.182L338.877 447.189L339.542 446.442ZM336.161 344.046L336.868 344.753L336.877 344.744L336.161 344.046ZM391.223 315.549L390.968 314.582L390.959 314.584L391.223 315.549ZM462.707 296.712L462.961 297.679L463.707 297.483V296.712H462.707ZM453.53 269.664L452.91 270.449L452.923 270.459L452.936 270.469L453.53 269.664ZM386.393 292.365V293.365H387.179L387.364 292.6L386.393 292.365ZM320.705 292.365L319.716 292.216L319.542 293.365H320.705V292.365ZM355.964 228.126L356.58 228.913V228.913L355.964 228.126ZM497.966 228.126L497.295 228.868L497.302 228.875L497.31 228.881L497.966 228.126ZM523.565 459V460H524.565V459H523.565ZM462.707 459H461.707V460H462.707V459ZM462.707 436.782H463.707V433.931L461.926 436.157L462.707 436.782ZM447.251 401.523L447.881 402.299L447.888 402.293L447.895 402.287L447.251 401.523ZM462.707 345.978H463.707V344.682L462.453 345.011L462.707 345.978ZM403.781 361.434L403.527 360.467L403.513 360.47L403.498 360.475L403.781 361.434ZM387.359 407.319L386.723 408.091L386.734 408.1L386.745 408.108L387.359 407.319ZM396.053 465.762V464.762C373.063 464.762 354.478 458.381 340.206 445.695L339.542 446.442L338.877 447.189C353.585 460.263 372.674 466.762 396.053 466.762V465.762ZM339.542 446.442L340.214 445.702C326.298 433.051 319.29 415.313 319.29 392.346H318.29H317.29C317.29 415.747 324.449 434.073 338.869 447.182L339.542 446.442ZM318.29 392.346H319.29C319.29 372.267 325.178 356.442 336.868 344.753L336.161 344.046L335.453 343.339C323.315 355.478 317.29 371.853 317.29 392.346H318.29ZM336.161 344.046L336.877 344.744C348.619 332.684 366.783 323.251 391.486 316.514L391.223 315.549L390.959 314.584C366.074 321.371 347.53 330.936 335.444 343.348L336.161 344.046ZM391.223 315.549L391.477 316.516L462.961 297.679L462.707 296.712L462.452 295.745L390.968 314.582L391.223 315.549ZM462.707 296.712H463.707V288.018H462.707H461.707V296.712H462.707ZM462.707 288.018H463.707C463.707 279.979 460.502 273.559 454.123 268.859L453.53 269.664L452.936 270.469C458.793 274.785 461.707 280.601 461.707 288.018H462.707ZM453.53 269.664L454.149 268.879C447.8 263.867 439.183 261.419 428.414 261.419V262.419V263.419C438.896 263.419 447.023 265.801 452.91 270.449L453.53 269.664ZM428.414 262.419V261.419C416.685 261.419 407.163 263.944 399.94 269.091C392.704 274.248 387.881 281.962 385.421 292.13L386.393 292.365L387.364 292.6C389.734 282.804 394.33 275.545 401.101 270.72C407.885 265.885 416.958 263.419 428.414 263.419V262.419ZM386.393 292.365V291.365H320.705V292.365V293.365H386.393V292.365ZM320.705 292.365L321.693 292.514C325.847 265.036 337.49 243.867 356.58 228.913L355.964 228.126L355.347 227.339C335.797 242.652 323.934 264.31 319.716 292.216L320.705 292.365ZM355.964 228.126L356.58 228.913C375.694 213.941 399.615 206.425 428.414 206.425V205.425V204.425C399.252 204.425 374.873 212.043 355.347 227.339L355.964 228.126ZM428.414 205.425V206.425C457.869 206.425 480.786 213.946 497.295 228.868L497.966 228.126L498.636 227.384C481.657 212.038 458.206 204.425 428.414 204.425V205.425ZM497.966 228.126L497.31 228.881C514.131 243.481 522.565 263.156 522.565 288.018H523.565H524.565C524.565 262.648 515.932 242.395 498.621 227.371L497.966 228.126ZM523.565 288.018H522.565V459H523.565H524.565V288.018H523.565ZM523.565 459V458H462.707V459V460H523.565V459ZM462.707 459H463.707V436.782H462.707H461.707V459H462.707ZM462.707 436.782L461.926 436.157C446.693 455.198 424.787 464.762 396.053 464.762V465.762V466.762C425.278 466.762 447.808 457.006 463.487 437.407L462.707 436.782ZM410.06 414.081V415.081C424.757 415.081 437.382 410.829 447.881 402.299L447.251 401.523L446.62 400.747C436.511 408.961 424.342 413.081 410.06 413.081V414.081ZM447.251 401.523L447.895 402.287C458.419 393.408 463.707 382.183 463.707 368.679H462.707H461.707C461.707 381.579 456.69 392.25 446.606 400.759L447.251 401.523ZM462.707 368.679H463.707V345.978H462.707H461.707V368.679H462.707ZM462.707 345.978L462.453 345.011L403.527 360.467L403.781 361.434L404.034 362.401L462.96 346.945L462.707 345.978ZM403.781 361.434L403.498 360.475C395.187 362.919 388.847 366.371 384.579 370.89C380.288 375.433 378.148 380.996 378.148 387.516H379.148H380.148C380.148 381.478 382.112 376.415 386.033 372.264C389.975 368.089 395.952 364.779 404.063 362.393L403.781 361.434ZM379.148 387.516H378.148C378.148 396.435 380.966 403.35 386.723 408.091L387.359 407.319L387.994 406.547C382.803 402.272 380.148 395.985 380.148 387.516H379.148ZM387.359 407.319L386.745 408.108C392.759 412.786 400.56 415.081 410.06 415.081V414.081V413.081C400.883 413.081 393.55 410.868 387.972 406.53L387.359 407.319ZM615.648 459L614.71 459.347L614.951 460H615.648V459ZM524.361 212.187V211.187H522.925L523.423 212.534L524.361 212.187ZM588.117 212.187L589.059 211.852L588.823 211.187H588.117V212.187ZM650.907 388.965L649.964 389.3L650.907 391.953L651.849 389.3L650.907 388.965ZM713.697 212.187V211.187H712.991L712.754 211.852L713.697 212.187ZM776.487 212.187L777.424 212.535L777.925 211.187H776.487V212.187ZM684.717 459V460H685.412L685.654 459.349L684.717 459ZM615.648 459L616.586 458.653L525.299 211.84L524.361 212.187L523.423 212.534L614.71 459.347L615.648 459ZM524.361 212.187V213.187H588.117V212.187V211.187H524.361V212.187ZM588.117 212.187L587.174 212.522L649.964 389.3L650.907 388.965L651.849 388.63L589.059 211.852L588.117 212.187ZM650.907 388.965L651.849 389.3L714.639 212.522L713.697 212.187L712.754 211.852L649.964 388.63L650.907 388.965ZM713.697 212.187V213.187H776.487V212.187V211.187H713.697V212.187ZM776.487 212.187L775.549 211.838L683.779 458.651L684.717 459L685.654 459.349L777.424 212.535L776.487 212.187ZM684.717 459V458H615.648V459V460H684.717V459ZM852.752 429.537L853.533 428.912L851.752 426.686V429.537H852.752ZM852.752 459V460H853.752V459H852.752ZM791.894 459H790.894V460H791.894V459ZM791.894 120.9V119.9H790.894V120.9H791.894ZM852.752 120.9H853.752V119.9H852.752V120.9ZM852.752 242.133H851.752V245.052L853.542 242.746L852.752 242.133ZM1016.97 240.201L1016.26 240.903V240.903L1016.97 240.201ZM1016.97 431.469L1017.68 432.176L1017.68 432.171L1016.97 431.469ZM871.106 389.448L870.381 390.137L870.39 390.146L871.106 389.448ZM969.155 389.448L968.439 388.75L968.43 388.759L969.155 389.448ZM969.155 282.222L968.421 282.902L968.43 282.911L968.439 282.92L969.155 282.222ZM871.106 282.222L870.381 281.533L870.381 281.533L871.106 282.222ZM934.862 465.762V464.762C899.696 464.762 872.634 452.789 853.533 428.912L852.752 429.537L851.971 430.162C871.51 454.585 899.188 466.762 934.862 466.762V465.762ZM852.752 429.537H851.752V459H852.752H853.752V429.537H852.752ZM852.752 459V458H791.894V459V460H852.752V459ZM791.894 459H792.894V120.9H791.894H790.894V459H791.894ZM791.894 120.9V121.9H852.752V120.9V119.9H791.894V120.9ZM852.752 120.9H851.752V242.133H852.752H853.752V120.9H852.752ZM852.752 242.133L853.542 242.746C872.32 218.558 899.375 206.425 934.862 206.425V205.425V204.425C898.865 204.425 871.18 216.764 851.962 241.52L852.752 242.133ZM934.862 205.425V206.425C966.466 206.425 993.581 217.905 1016.26 240.903L1016.97 240.201L1017.68 239.499C994.638 216.129 967.014 204.425 934.862 204.425V205.425ZM1016.97 240.201L1016.26 240.903C1038.89 263.857 1050.26 295.458 1050.26 335.835H1051.26H1052.26C1052.26 295.068 1040.77 262.914 1017.68 239.499L1016.97 240.201ZM1051.26 335.835H1050.26C1050.26 376.212 1038.89 407.814 1016.26 430.767L1016.97 431.469L1017.68 432.171C1040.77 408.757 1052.26 376.602 1052.26 335.835H1051.26ZM1016.97 431.469L1016.26 430.762C993.587 453.439 966.47 464.762 934.862 464.762V465.762V466.762C967.009 466.762 994.632 455.223 1017.68 432.176L1016.97 431.469ZM871.106 389.448L870.39 390.146C883.161 403.245 899.854 409.768 920.372 409.768V408.768V407.768C900.318 407.768 884.167 401.411 871.822 388.75L871.106 389.448ZM920.372 408.768V409.768C940.889 409.768 957.427 403.244 969.88 390.137L969.155 389.448L968.43 388.759C956.41 401.412 940.426 407.768 920.372 407.768V408.768ZM969.155 389.448L969.871 390.146C982.657 377.032 988.992 358.884 988.992 335.835H987.992H986.992C986.992 358.51 980.769 376.104 968.439 388.75L969.155 389.448ZM987.992 335.835H988.992C988.992 312.786 982.657 294.638 969.871 281.524L969.155 282.222L968.439 282.92C980.769 295.566 986.992 313.16 986.992 335.835H987.992ZM969.155 282.222L969.888 281.542C957.438 268.109 940.897 261.419 920.372 261.419V262.419V263.419C940.418 263.419 956.4 269.931 968.421 282.902L969.155 282.222ZM920.372 262.419V261.419C899.846 261.419 883.15 268.109 870.381 281.533L871.106 282.222L871.83 282.911C884.177 269.931 900.325 263.419 920.372 263.419V262.419ZM871.106 282.222L870.381 281.533C857.922 294.648 851.752 312.793 851.752 335.835H852.752H853.752C853.752 313.153 859.818 295.556 871.831 282.911L871.106 282.222ZM852.752 335.835H851.752C851.752 358.877 857.922 377.022 870.381 390.137L871.106 389.448L871.831 388.759C859.818 376.114 853.752 358.517 853.752 335.835H852.752ZM1086.66 550.77L1085.73 550.395L1085.18 551.77H1086.66V550.77ZM1133.03 436.299L1133.95 436.674L1134.11 436.286L1133.95 435.901L1133.03 436.299ZM1035.94 212.187V211.187H1034.42L1035.03 212.584L1035.94 212.187ZM1102.6 212.187L1103.52 211.798L1103.26 211.187H1102.6V212.187ZM1165.39 360.951L1164.47 361.34L1165.41 363.583L1166.32 361.322L1165.39 360.951ZM1224.8 212.187V211.187H1224.12L1223.87 211.816L1224.8 212.187ZM1288.07 212.187L1289 212.565L1289.56 211.187H1288.07V212.187ZM1149.93 550.77V551.77H1150.6L1150.86 551.148L1149.93 550.77ZM1086.66 550.77L1087.59 551.145L1133.95 436.674L1133.03 436.299L1132.1 435.924L1085.73 550.395L1086.66 550.77ZM1133.03 436.299L1133.95 435.901L1036.86 211.789L1035.94 212.187L1035.03 212.584L1132.11 436.697L1133.03 436.299ZM1035.94 212.187V213.187H1102.6V212.187V211.187H1035.94V212.187ZM1102.6 212.187L1101.68 212.576L1164.47 361.34L1165.39 360.951L1166.31 360.562L1103.52 211.798L1102.6 212.187ZM1165.39 360.951L1166.32 361.322L1225.73 212.558L1224.8 212.187L1223.87 211.816L1164.46 360.58L1165.39 360.951ZM1224.8 212.187V213.187H1288.07V212.187V211.187H1224.8V212.187ZM1288.07 212.187L1287.14 211.809L1149.01 550.392L1149.93 550.77L1150.86 551.148L1289 212.565L1288.07 212.187ZM1149.93 550.77V549.77H1086.66V550.77V551.77H1149.93V550.77Z" fill="#604AFF" mask="url(#path-2-outside-1_1_14)"/>
</svg>
